# xmcd
# 
# Track frame offsets:
#     150
#     14767
#     31121
#     47736
#     64053
#     80905
#     103074
#     117951
#     141848
#     158893
# 
# Disc length: 2409
# 
# Revision: 0
# Processed by: cddbd v1.5.2PL0 Copyright (c) Steve Scherf et al.
# Submitted via: BonkEnc v1.0.15
# 
DISCID=8809670a
DTITLE=The Mods - FIGHT OR FLIGHT
DYEAR=0
DGENRE=Rock 
TTITLE0=不良少年の詩 (SONG FOR JOHN SIMON RICHIE AND US)
TTITLE1=WATCH YOUR STEP
TTITLE2=崩れ落ちる前に
TTITLE3=HEY! GIRL
TTITLE4=が・ま・ん・す・る・ん・だ
TTITLE5=TWO PUNKS
TTITLE6=NO REACTION
TTITLE7=くよくよしたって
TTITLE8=ONE MORE TRY
TTITLE9=TOMORROW NEVER COMES (WARNING FOR KIDS)
EXTD=
EXTT0=
EXTT1=
EXTT2=
EXTT3=
EXTT4=
EXTT5=
EXTT6=
EXTT7=
EXTT8=
EXTT9=
PLAYORDER=
